<svg width="487" height="366" viewBox="0 0 487 366" fill="none" xmlns="http://www.w3.org/2000/svg">
<path d="M89.4279 275.493L89.7352 274.457L88.8498 273.838C49.0213 245.967 24.5 207.291 24.5 164.68C24.5 122.578 48.4383 84.3187 87.4285 56.5261C126.416 28.7357 180.353 11.5 240 11.5C299.647 11.5 353.584 28.7357 392.572 56.5261C431.562 84.3187 455.5 122.578 455.5 164.68C455.5 206.782 431.562 245.041 392.572 272.834C353.584 300.624 299.647 317.86 240 317.86C210.102 317.86 166.549 308.85 143.438 302.938L142.789 302.772L142.232 303.144C121.851 316.766 106.123 328.079 94.2788 336.598C91.2255 338.794 88.4305 340.804 85.8804 342.62C79.6417 347.064 74.9149 350.314 71.4515 352.303C69.7155 353.299 68.3679 353.938 67.3509 354.26C66.277 354.601 65.874 354.491 65.7924 354.451L65.7907 354.45C65.7782 354.444 65.7512 354.431 65.7073 354.353C65.6501 354.25 65.5714 354.043 65.5266 353.665C65.4348 352.892 65.5179 351.709 65.8408 350.016C66.4822 346.653 67.9647 341.777 70.1377 335.19C71.1505 332.12 72.3081 328.693 73.5897 324.899C77.7831 312.486 83.3048 296.141 89.4279 275.493Z" fill="white" stroke="black" stroke-width="3"/>
<path d="M120.219 159.582C119.203 159.582 117.621 159.51 115.473 159.367C113.402 159.224 111.82 159.159 110.727 159.172C110.779 160.656 110.954 163.299 111.254 167.102C111.527 170.461 111.664 173.117 111.664 175.07C111.664 175.513 111.71 176.171 111.801 177.043C111.892 177.915 111.938 178.573 111.938 179.016C111.938 179.992 111.729 180.871 111.312 181.652C110.779 182.655 110.017 183.156 109.027 183.156C108.311 183.156 107.68 182.928 107.133 182.473C106.521 181.965 106.215 181.327 106.215 180.559C106.215 180.376 106.247 180.103 106.312 179.738C106.378 179.361 106.41 179.074 106.41 178.879C106.41 178.28 106.365 177.375 106.273 176.164C106.195 174.953 106.156 174.042 106.156 173.43C106.156 171.685 106.02 169.322 105.746 166.34C105.434 162.915 105.251 160.552 105.199 159.25H104.184C101.28 159.25 98.9753 159.042 97.2695 158.625C95.8242 158.273 95.1016 157.421 95.1016 156.066C95.1016 155.402 95.3359 154.803 95.8047 154.27C96.3516 153.632 97.0677 153.345 97.9531 153.41C98.4089 153.436 99.444 153.547 101.059 153.742C102.348 153.885 103.389 153.957 104.184 153.957C104.978 153.957 106.163 153.944 107.738 153.918C109.327 153.892 110.518 153.879 111.312 153.879C112.302 153.879 113.786 153.951 115.766 154.094C117.745 154.224 119.229 154.289 120.219 154.289C121 154.289 121.651 154.543 122.172 155.051C122.706 155.559 122.973 156.184 122.973 156.926C122.973 157.668 122.706 158.299 122.172 158.82C121.651 159.328 121 159.582 120.219 159.582ZM154.074 155.91C153.814 156.861 153.684 157.688 153.684 158.391C153.684 158.755 153.645 159.322 153.566 160.09C153.501 160.845 153.469 161.405 153.469 161.77C153.469 163.007 153.404 164.842 153.273 167.277C153.143 169.712 153.078 171.548 153.078 172.785C153.078 173.736 153.15 175.155 153.293 177.043C153.436 178.931 153.508 180.35 153.508 181.301C153.508 182.017 153.254 182.622 152.746 183.117C152.238 183.612 151.607 183.859 150.852 183.859C150.083 183.859 149.419 183.612 148.859 183.117C148.299 182.635 148.02 182.043 148.02 181.34C148.02 180.389 147.974 178.964 147.883 177.062C147.805 175.161 147.766 173.736 147.766 172.785C147.766 172.043 147.779 171.385 147.805 170.812C145.76 170.904 143.234 171.223 140.227 171.77C137.727 172.225 135.227 172.688 132.727 173.156C132.701 174.042 132.609 175.52 132.453 177.59C132.323 179.413 132.258 180.904 132.258 182.062C132.258 182.779 132.004 183.384 131.496 183.879C130.988 184.374 130.357 184.621 129.602 184.621C128.846 184.621 128.215 184.374 127.707 183.879C127.199 183.384 126.945 182.779 126.945 182.062C126.945 180.747 127.056 178.781 127.277 176.164C127.512 173.547 127.629 171.581 127.629 170.266C127.629 168.599 127.668 166.092 127.746 162.746C127.824 159.387 127.863 156.874 127.863 155.207C127.863 154.491 128.117 153.885 128.625 153.391C129.133 152.896 129.764 152.648 130.52 152.648C131.275 152.648 131.906 152.896 132.414 153.391C132.922 153.885 133.176 154.491 133.176 155.207C133.176 156.197 133.137 157.688 133.059 159.68C132.993 161.659 132.961 163.143 132.961 164.133C132.961 164.458 132.915 165.083 132.824 166.008C132.746 166.867 132.714 167.525 132.727 167.98L140.227 166.574C143.156 166.053 145.682 165.754 147.805 165.676C147.857 164.803 147.941 162.46 148.059 158.645C148.085 157.642 148.391 156.49 148.977 155.188C149.706 153.586 150.533 152.785 151.457 152.785C152.147 152.785 152.759 153.013 153.293 153.469C153.866 153.964 154.152 154.582 154.152 155.324C154.152 155.52 154.126 155.715 154.074 155.91ZM176.191 159.914C175.514 159.914 173.659 159.732 170.625 159.367C170.443 161.763 170.352 164.947 170.352 168.918L170.332 177.688C172.064 177.648 173.828 177.629 175.625 177.629C176.406 177.629 177.051 177.889 177.559 178.41C178.079 178.931 178.34 179.556 178.34 180.285C178.34 181.014 178.079 181.639 177.559 182.16C177.051 182.668 176.406 182.922 175.625 182.922C174.896 182.922 173.802 182.941 172.344 182.98C170.885 183.007 169.792 183.02 169.062 183.02C168.203 183.02 166.914 183.13 165.195 183.352C163.477 183.586 162.188 183.703 161.328 183.703C160.547 183.703 159.896 183.449 159.375 182.941C158.867 182.421 158.613 181.796 158.613 181.066C158.613 180.337 158.867 179.712 159.375 179.191C159.896 178.671 160.547 178.41 161.328 178.41C162.214 178.41 163.379 178.312 164.824 178.117C164.798 176.581 164.785 173.638 164.785 169.289C164.785 165.747 164.915 162.368 165.176 159.152L160.938 159.27C160.156 159.27 159.499 159.016 158.965 158.508C158.444 158 158.184 157.368 158.184 156.613C158.184 155.845 158.444 155.22 158.965 154.738C159.447 154.296 160.039 154.042 160.742 153.977C161.888 153.872 163.88 153.82 166.719 153.82C169.271 153.82 172.559 154.094 176.582 154.641C178.184 154.862 178.984 155.76 178.984 157.336C178.984 158.169 178.659 158.827 178.008 159.309C177.474 159.712 176.868 159.914 176.191 159.914ZM192.527 184.191C189.22 184.191 186.616 183.456 184.715 181.984C183.113 180.76 182.312 179.348 182.312 177.746C182.312 176.926 182.56 176.249 183.055 175.715C183.549 175.168 184.233 174.895 185.105 174.895C186.277 174.895 187.137 175.493 187.684 176.691C188.426 178.293 190.105 179.094 192.723 179.094C194.962 179.094 197.13 178.605 199.227 177.629C201.401 176.626 202.488 175.526 202.488 174.328C202.488 172.688 201.811 171.607 200.457 171.086C199.493 170.708 197.56 170.487 194.656 170.422C192.404 170.37 190.385 169.947 188.602 169.152C186.193 168.072 185.008 166.522 185.047 164.504C185.086 161.965 186.44 159.641 189.109 157.531C191.779 155.409 194.721 154.348 197.938 154.348C199.214 154.348 200.789 154.641 202.664 155.227C204.995 155.956 206.16 156.796 206.16 157.746C206.16 158.423 205.926 159.022 205.457 159.543C204.936 160.129 204.266 160.422 203.445 160.422C202.833 160.422 201.915 160.292 200.691 160.031C199.48 159.771 198.562 159.641 197.938 159.641C196.258 159.654 194.663 160.057 193.152 160.852C191.59 161.659 190.809 162.538 190.809 163.488C190.809 163.983 191.043 164.393 191.512 164.719C191.993 165.031 192.71 165.253 193.66 165.383C195.327 165.474 196.987 165.565 198.641 165.656C201.531 165.878 203.816 166.691 205.496 168.098C207.345 169.66 208.27 171.822 208.27 174.582C208.27 177.941 206.355 180.487 202.527 182.219C199.611 183.534 196.277 184.191 192.527 184.191ZM249.145 159.914C248.467 159.914 246.612 159.732 243.578 159.367C243.396 161.763 243.305 164.947 243.305 168.918L243.285 177.688C245.017 177.648 246.781 177.629 248.578 177.629C249.359 177.629 250.004 177.889 250.512 178.41C251.033 178.931 251.293 179.556 251.293 180.285C251.293 181.014 251.033 181.639 250.512 182.16C250.004 182.668 249.359 182.922 248.578 182.922C247.849 182.922 246.755 182.941 245.297 182.98C243.839 183.007 242.745 183.02 242.016 183.02C241.156 183.02 239.867 183.13 238.148 183.352C236.43 183.586 235.141 183.703 234.281 183.703C233.5 183.703 232.849 183.449 232.328 182.941C231.82 182.421 231.566 181.796 231.566 181.066C231.566 180.337 231.82 179.712 232.328 179.191C232.849 178.671 233.5 178.41 234.281 178.41C235.167 178.41 236.332 178.312 237.777 178.117C237.751 176.581 237.738 173.638 237.738 169.289C237.738 165.747 237.868 162.368 238.129 159.152L233.891 159.27C233.109 159.27 232.452 159.016 231.918 158.508C231.397 158 231.137 157.368 231.137 156.613C231.137 155.845 231.397 155.22 231.918 154.738C232.4 154.296 232.992 154.042 233.695 153.977C234.841 153.872 236.833 153.82 239.672 153.82C242.224 153.82 245.512 154.094 249.535 154.641C251.137 154.862 251.938 155.76 251.938 157.336C251.938 158.169 251.612 158.827 250.961 159.309C250.427 159.712 249.822 159.914 249.145 159.914ZM265.48 184.191C262.173 184.191 259.569 183.456 257.668 181.984C256.066 180.76 255.266 179.348 255.266 177.746C255.266 176.926 255.513 176.249 256.008 175.715C256.503 175.168 257.186 174.895 258.059 174.895C259.23 174.895 260.09 175.493 260.637 176.691C261.379 178.293 263.059 179.094 265.676 179.094C267.915 179.094 270.083 178.605 272.18 177.629C274.354 176.626 275.441 175.526 275.441 174.328C275.441 172.688 274.764 171.607 273.41 171.086C272.447 170.708 270.513 170.487 267.609 170.422C265.357 170.37 263.339 169.947 261.555 169.152C259.146 168.072 257.961 166.522 258 164.504C258.039 161.965 259.393 159.641 262.062 157.531C264.732 155.409 267.674 154.348 270.891 154.348C272.167 154.348 273.742 154.641 275.617 155.227C277.948 155.956 279.113 156.796 279.113 157.746C279.113 158.423 278.879 159.022 278.41 159.543C277.889 160.129 277.219 160.422 276.398 160.422C275.786 160.422 274.868 160.292 273.645 160.031C272.434 159.771 271.516 159.641 270.891 159.641C269.211 159.654 267.616 160.057 266.105 160.852C264.543 161.659 263.762 162.538 263.762 163.488C263.762 163.983 263.996 164.393 264.465 164.719C264.947 165.031 265.663 165.253 266.613 165.383C268.28 165.474 269.94 165.565 271.594 165.656C274.484 165.878 276.77 166.691 278.449 168.098C280.298 169.66 281.223 171.822 281.223 174.582C281.223 177.941 279.309 180.487 275.48 182.219C272.564 183.534 269.23 184.191 265.48 184.191ZM328.289 159.66C327.573 160.103 326.694 160.669 325.652 161.359C323.452 162.987 320.848 165.786 317.84 169.758C315.535 172.857 313.23 175.962 310.926 179.074L310.848 179.172C311.798 179.146 314.09 179.055 317.723 178.898C320.574 178.768 322.846 178.703 324.539 178.703C326.401 178.703 327.664 178.775 328.328 178.918C329.891 179.257 330.698 180.005 330.75 181.164C330.789 182.023 330.49 182.701 329.852 183.195C329.305 183.625 328.647 183.84 327.879 183.84C327.501 183.84 326.935 183.814 326.18 183.762C325.424 183.723 324.858 183.703 324.48 183.703C322.501 183.703 319.526 183.749 315.555 183.84C311.596 183.944 308.628 183.996 306.648 183.996C305.802 183.996 305.105 183.781 304.559 183.352C303.947 182.883 303.641 182.225 303.641 181.379C303.641 180.441 304.051 179.328 304.871 178.039C305.132 177.635 305.867 176.652 307.078 175.09C309.214 172.238 311.355 169.393 313.504 166.555C316.056 163.273 318.445 160.617 320.672 158.586C318.641 158.729 317.091 158.801 316.023 158.801H308.133C307.99 158.801 307.781 158.814 307.508 158.84C307.234 158.853 307.026 158.859 306.883 158.859C306.115 158.859 305.464 158.638 304.93 158.195C304.331 157.701 304.031 157.036 304.031 156.203C304.031 154.419 305.353 153.527 307.996 153.527C308.895 153.527 310.236 153.586 312.02 153.703C313.803 153.807 315.145 153.859 316.043 153.859C317.046 153.859 318.543 153.833 320.535 153.781C322.54 153.729 324.044 153.703 325.047 153.703C328.927 153.703 330.867 154.549 330.867 156.242C330.867 157.323 330.008 158.462 328.289 159.66ZM348.492 184.191C344.638 184.191 341.357 183.085 338.648 180.871C335.758 178.501 334.312 175.435 334.312 171.672C334.312 167.245 335.699 163.208 338.473 159.562C341.585 155.461 345.504 153.41 350.23 153.41C354.775 153.41 358.18 154.452 360.445 156.535C362.711 158.618 363.844 161.75 363.844 165.93C363.844 170.357 362.568 174.367 360.016 177.961C357.073 182.115 353.232 184.191 348.492 184.191ZM350.23 158.703C347.327 158.703 344.84 160.109 342.77 162.922C340.829 165.552 339.859 168.469 339.859 171.672C339.859 173.833 340.699 175.591 342.379 176.945C343.993 178.247 346.031 178.898 348.492 178.898C351.357 178.898 353.746 177.492 355.66 174.68C357.418 172.115 358.297 169.198 358.297 165.93C358.297 163.195 357.685 161.294 356.461 160.227C355.289 159.211 353.212 158.703 350.23 158.703ZM388.754 157.961C388.493 157.961 388.22 157.922 387.934 157.844C385.824 157.271 383.773 156.984 381.781 156.984C380.805 156.984 379.757 157.062 378.637 157.219C377.517 157.375 376.326 157.609 375.062 157.922C375.062 159.654 375.004 162.225 374.887 165.637C375.616 165.585 378.161 165.344 382.523 164.914C385.01 164.667 386.586 164.543 387.25 164.543C388.018 164.543 388.676 164.79 389.223 165.285C389.77 165.767 390.043 166.411 390.043 167.219C390.043 168.768 389.216 169.647 387.562 169.855C386.521 169.934 384.965 170.064 382.895 170.246C381.046 170.454 378.259 170.708 374.535 171.008C374.444 172.661 374.398 173.996 374.398 175.012C374.398 177.564 374.548 179.016 374.848 179.367C374.991 179.536 375.811 179.621 377.309 179.621C378.116 179.621 379.333 179.602 380.961 179.562C382.589 179.523 383.806 179.504 384.613 179.504C384.874 179.504 385.258 179.465 385.766 179.387C386.273 179.309 386.651 179.27 386.898 179.27C387.654 179.27 388.298 179.484 388.832 179.914C389.444 180.396 389.75 181.073 389.75 181.945C389.75 183.404 388.988 184.276 387.465 184.562C386.163 184.81 383.461 184.934 379.359 184.934C375.115 184.934 372.348 184.361 371.059 183.215C369.639 181.952 368.93 179.217 368.93 175.012C368.93 173.267 369.053 170.65 369.301 167.16C369.561 163.658 369.691 161.04 369.691 159.309C369.691 158.853 369.626 158.182 369.496 157.297C369.366 156.398 369.301 155.721 369.301 155.266C369.301 153.286 370.212 152.297 372.035 152.297C372.608 152.297 373.135 152.46 373.617 152.785C375.128 152.408 376.56 152.128 377.914 151.945C379.281 151.75 380.57 151.652 381.781 151.652C385.062 151.652 387.686 152.03 389.652 152.785C390.85 153.241 391.449 154.068 391.449 155.266C391.449 155.943 391.215 156.542 390.746 157.062C390.225 157.661 389.561 157.961 388.754 157.961Z" fill="black"/>
</svg>
